<?xml version="1.0" encoding="utf-8"?>
<!-- Generator: Adobe Illustrator 19.0.0, SVG Export Plug-In . SVG Version: 6.00 Build 0)  -->
<svg version="1.1" id="Layer_1" xmlns="http://www.w3.org/2000/svg" xmlns:xlink="http://www.w3.org/1999/xlink" x="0px" y="0px"
     viewBox="45 230 425 50"
     style="enable-background:new 0 0 500 500;" xml:space="preserve">
<style type="text/css">
	.st0{fill:url(#XMLID_31_);}
	.st1{fill:url(#XMLID_32_);}
	.st2{fill:url(#XMLID_33_);}
	.st3{fill:url(#XMLID_34_);}
	.st4{fill:url(#XMLID_35_);}
	.st5{fill:url(#XMLID_36_);}
	.st6{fill:url(#XMLID_37_);}
	.st7{fill:url(#XMLID_38_);}
	.st8{fill:url(#XMLID_39_);}
	.st9{fill:url(#XMLID_40_);}
	.st10{fill:url(#XMLID_41_);}
	.st11{fill:url(#XMLID_42_);}
	.st12{fill:url(#XMLID_43_);}
	.st13{fill:url(#XMLID_44_);}
	.st14{fill:url(#XMLID_45_);}
	.st15{fill:url(#XMLID_46_);}
</style>
<g id="XMLID_2_">
	<linearGradient id="XMLID_31_" gradientUnits="userSpaceOnUse" x1="356.5032" y1="242.8757" x2="151.1429" y2="242.8757">
		<stop  offset="0" style="stop-color:#EE2A7B"/>
		<stop  offset="1" style="stop-color:#662D91"/>
	</linearGradient>
	<rect id="XMLID_30_" x="283.4" y="240.3" class="st0" width="25.6" height="5.1"/>
	<linearGradient id="XMLID_32_" gradientUnits="userSpaceOnUse" x1="104.5208" y1="254.2888" x2="252.1412" y2="254.2888">
		<stop  offset="0" style="stop-color:#00AEEF"/>
		<stop  offset="1" style="stop-color:#262262"/>
	</linearGradient>
	<path id="XMLID_27_" class="st1" d="M132.4,262.2c0,0.6-0.1,1.3-0.3,2c-0.2,0.7-0.6,1.4-1.1,2c-0.5,0.6-1.1,1.1-1.9,1.5
		c-0.8,0.4-1.7,0.6-2.9,0.6h-19.4c-0.4,0-0.7-0.1-1-0.2c-0.3-0.1-0.6-0.3-0.8-0.5c-0.2-0.2-0.4-0.5-0.5-0.8c-0.1-0.3-0.2-0.7-0.2-1
		v-23c0-0.4,0.1-0.7,0.2-1c0.1-0.3,0.3-0.6,0.5-0.8c0.2-0.2,0.5-0.4,0.8-0.6c0.3-0.1,0.7-0.2,1-0.2h17.1c0.6,0,1.3,0.1,2,0.3
		c0.7,0.2,1.4,0.6,2,1.1c0.6,0.5,1.1,1.1,1.6,1.9c0.4,0.8,0.6,1.7,0.6,2.9v1c0,0.9-0.2,1.9-0.5,2.9c-0.3,1-0.8,2-1.5,3
		c0.6,0.4,1.1,0.8,1.6,1.3c0.5,0.5,0.9,1.1,1.3,1.7c0.4,0.7,0.7,1.4,0.9,2.2c0.2,0.8,0.3,1.7,0.3,2.7V262.2z M127.3,261.2
		c0-0.7-0.1-1.3-0.3-1.8c-0.2-0.5-0.5-1-0.9-1.4c-0.4-0.4-0.8-0.7-1.4-0.9c-0.5-0.2-1.1-0.3-1.8-0.3h-13.6v-5.1h11.3
		c0.7,0,1.3-0.1,1.8-0.3c0.5-0.2,1-0.5,1.4-0.9c0.4-0.4,0.7-0.8,0.9-1.4c0.2-0.5,0.3-1.1,0.3-1.8v-1c0-0.7-0.4-1.1-1.1-1.1h-14.6v18
		h16.9c0.1,0,0.2,0,0.3,0c0.1,0,0.2-0.1,0.4-0.1c0.1-0.1,0.2-0.2,0.3-0.3c0.1-0.2,0.1-0.4,0.1-0.6V261.2z"/>
	<linearGradient id="XMLID_33_" gradientUnits="userSpaceOnUse" x1="104.5208" y1="254.2888" x2="252.1412" y2="254.2888">
		<stop  offset="0" style="stop-color:#00AEEF"/>
		<stop  offset="1" style="stop-color:#262262"/>
	</linearGradient>
	<path id="XMLID_25_" class="st2" d="M142,268.4h-5.1v-28.2h5.1V268.4z"/>
	<linearGradient id="XMLID_34_" gradientUnits="userSpaceOnUse" x1="104.5208" y1="254.2888" x2="252.1412" y2="254.2888">
		<stop  offset="0" style="stop-color:#00AEEF"/>
		<stop  offset="1" style="stop-color:#262262"/>
	</linearGradient>
	<path id="XMLID_22_" class="st3" d="M177.5,257c0,1.7-0.3,3.3-0.9,4.7c-0.6,1.4-1.4,2.7-2.5,3.7c-1,1-2.3,1.9-3.7,2.4
		c-1.4,0.6-3,0.9-4.7,0.9h-6.9c-1.7,0-3.3-0.3-4.7-0.9c-1.4-0.6-2.7-1.4-3.7-2.4c-1-1-1.9-2.3-2.5-3.7c-0.6-1.4-0.9-3-0.9-4.7v-5.4
		c0-1.7,0.3-3.3,0.9-4.7c0.6-1.4,1.4-2.7,2.5-3.7c1-1,2.3-1.9,3.7-2.4c1.4-0.6,3-0.9,4.7-0.9h6.9c1.7,0,3.3,0.3,4.7,0.9
		c1.4,0.6,2.7,1.4,3.7,2.4c1,1,1.9,2.3,2.5,3.7c0.6,1.4,0.9,3,0.9,4.7V257z M172.4,251.6c0-1-0.2-1.9-0.5-2.7
		c-0.3-0.8-0.8-1.5-1.4-2.1c-0.6-0.6-1.3-1-2.1-1.4c-0.8-0.3-1.7-0.5-2.7-0.5h-6.9c-1,0-1.9,0.2-2.7,0.5c-0.8,0.3-1.5,0.8-2.1,1.4
		c-0.6,0.6-1,1.3-1.4,2.1c-0.3,0.8-0.5,1.7-0.5,2.7v5.4c0,1,0.2,1.9,0.5,2.7c0.3,0.8,0.8,1.5,1.4,2.1c0.6,0.6,1.3,1,2.1,1.4
		c0.8,0.3,1.7,0.5,2.7,0.5h6.9c1,0,1.9-0.2,2.7-0.5c0.8-0.3,1.5-0.8,2.1-1.4c0.6-0.6,1-1.3,1.4-2.1c0.3-0.8,0.5-1.7,0.5-2.7V251.6z"
		/>
	<linearGradient id="XMLID_35_" gradientUnits="userSpaceOnUse" x1="356.5032" y1="254.2888" x2="151.1429" y2="254.2888">
		<stop  offset="0" style="stop-color:#EE2A7B"/>
		<stop  offset="1" style="stop-color:#662D91"/>
	</linearGradient>
	<path id="XMLID_20_" class="st4" d="M279.9,268.4h-23.3c-0.4,0-0.7-0.1-1-0.2c-0.3-0.1-0.6-0.3-0.8-0.5c-0.2-0.2-0.4-0.5-0.5-0.8
		c-0.1-0.3-0.2-0.7-0.2-1v-25.6h5.1v23.1h20.8V268.4z"/>
	<linearGradient id="XMLID_36_" gradientUnits="userSpaceOnUse" x1="356.5032" y1="254.2887" x2="151.1429" y2="254.2887">
		<stop  offset="0" style="stop-color:#EE2A7B"/>
		<stop  offset="1" style="stop-color:#662D91"/>
	</linearGradient>
	<path id="XMLID_18_" class="st5" d="M342.1,266.2c0,0.4-0.1,0.7-0.2,1c-0.1,0.3-0.3,0.6-0.6,0.8c-0.2,0.2-0.5,0.4-0.8,0.5
		c-0.3,0.1-0.6,0.2-1,0.2c-0.3,0-0.6-0.1-1-0.2c-0.3-0.1-0.6-0.3-0.9-0.6L319,248.5v19.9h-5.1v-26c0-0.5,0.1-1,0.4-1.4
		c0.3-0.4,0.7-0.7,1.1-1c0.5-0.2,1-0.2,1.5-0.1c0.5,0.1,0.9,0.3,1.3,0.7L337,260v-19.9h5.1V266.2z"/>
	<linearGradient id="XMLID_37_" gradientUnits="userSpaceOnUse" x1="356.5032" y1="254.2888" x2="151.1429" y2="254.2888">
		<stop  offset="0" style="stop-color:#EE2A7B"/>
		<stop  offset="1" style="stop-color:#662D91"/>
	</linearGradient>
	<path id="XMLID_16_" class="st6" d="M373.5,245.3h-11.3v23.1h-5.1v-23.1h-11.3v-5.1h27.7V245.3z"/>
	<linearGradient id="XMLID_38_" gradientUnits="userSpaceOnUse" x1="356.5032" y1="254.2888" x2="151.1429" y2="254.2888">
		<stop  offset="0" style="stop-color:#EE2A7B"/>
		<stop  offset="1" style="stop-color:#662D91"/>
	</linearGradient>
	<path id="XMLID_14_" class="st7" d="M382.4,268.4h-5.1v-28.2h5.1V268.4z"/>
	<linearGradient id="XMLID_39_" gradientUnits="userSpaceOnUse" x1="356.5032" y1="254.2887" x2="151.1429" y2="254.2887">
		<stop  offset="0" style="stop-color:#EE2A7B"/>
		<stop  offset="1" style="stop-color:#662D91"/>
	</linearGradient>
	<path id="XMLID_12_" class="st8" d="M416.5,266.2c0,0.4-0.1,0.7-0.2,1c-0.1,0.3-0.3,0.6-0.6,0.8c-0.2,0.2-0.5,0.4-0.8,0.5
		c-0.3,0.1-0.6,0.2-1,0.2c-0.3,0-0.6-0.1-1-0.2c-0.3-0.1-0.6-0.3-0.9-0.6l-18.7-19.5v19.9h-5.1v-26c0-0.5,0.1-1,0.4-1.4
		c0.3-0.4,0.7-0.7,1.1-1c0.5-0.2,1-0.2,1.5-0.1c0.5,0.1,0.9,0.3,1.3,0.7l18.7,19.5v-19.9h5.1V266.2z"/>
	<linearGradient id="XMLID_40_" gradientUnits="userSpaceOnUse" x1="356.5032" y1="254.2888" x2="151.1429" y2="254.2888">
		<stop  offset="0" style="stop-color:#EE2A7B"/>
		<stop  offset="1" style="stop-color:#662D91"/>
	</linearGradient>
	<path id="XMLID_9_" class="st9" d="M452.1,257c0,1.7-0.3,3.3-0.9,4.7c-0.6,1.4-1.4,2.7-2.5,3.7c-1,1-2.3,1.9-3.7,2.4
		c-1.4,0.6-3,0.9-4.7,0.9h-6.9c-1.7,0-3.3-0.3-4.7-0.9c-1.4-0.6-2.7-1.4-3.7-2.4c-1-1-1.9-2.3-2.5-3.7c-0.6-1.4-0.9-3-0.9-4.7v-5.4
		c0-1.7,0.3-3.3,0.9-4.7c0.6-1.4,1.4-2.7,2.5-3.7c1-1,2.3-1.9,3.7-2.4c1.4-0.6,3-0.9,4.7-0.9h6.9c1.7,0,3.3,0.3,4.7,0.9
		c1.4,0.6,2.7,1.4,3.7,2.4c1,1,1.9,2.3,2.5,3.7c0.6,1.4,0.9,3,0.9,4.7V257z M446.9,251.6c0-1-0.2-1.9-0.5-2.7
		c-0.3-0.8-0.8-1.5-1.4-2.1c-0.6-0.6-1.3-1-2.1-1.4c-0.8-0.3-1.7-0.5-2.7-0.5h-6.9c-1,0-1.9,0.2-2.7,0.5c-0.8,0.3-1.5,0.8-2.1,1.4
		c-0.6,0.6-1,1.3-1.4,2.1c-0.3,0.8-0.5,1.7-0.5,2.7v5.4c0,1,0.2,1.9,0.5,2.7c0.3,0.8,0.8,1.5,1.4,2.1c0.6,0.6,1.3,1,2.1,1.4
		c0.8,0.3,1.7,0.5,2.7,0.5h6.9c1,0,1.9-0.2,2.7-0.5c0.8-0.3,1.5-0.8,2.1-1.4c0.6-0.6,1-1.3,1.4-2.1c0.3-0.8,0.5-1.7,0.5-2.7V251.6z"
		/>
	<linearGradient id="XMLID_41_" gradientUnits="userSpaceOnUse" x1="356.5032" y1="254.0076" x2="151.1429" y2="254.0076">
		<stop  offset="0" style="stop-color:#EE2A7B"/>
		<stop  offset="1" style="stop-color:#662D91"/>
	</linearGradient>
	<polygon id="XMLID_8_" class="st10" points="240,240.2 212.1,267.8 219.3,267.8 220.5,267.8 245.1,243.4 245.1,267.8 251.8,267.8 
		251.8,240.2 	"/>
	<linearGradient id="XMLID_42_" gradientUnits="userSpaceOnUse" x1="357.5211" y1="254.0076" x2="152.1608" y2="254.0076">
		<stop  offset="0" style="stop-color:#EE2A7B"/>
		<stop  offset="1" style="stop-color:#662D91"/>
	</linearGradient>
	<polygon id="XMLID_7_" class="st11" points="232.3,240.2 229.9,240.2 228.8,240.2 204.1,264.4 204.1,240.2 197.4,240.2 
		197.4,267.8 209.2,267.8 237.2,240.2 	"/>
	<linearGradient id="XMLID_43_" gradientUnits="userSpaceOnUse" x1="104.5208" y1="254.2888" x2="252.1412" y2="254.2888">
		<stop  offset="0" style="stop-color:#00AEEF"/>
		<stop  offset="1" style="stop-color:#262262"/>
	</linearGradient>
	<polygon id="XMLID_6_" class="st12" points="95.1,268.4 95.1,244.3 70.7,268.4 61.9,268.4 90.5,240.2 101.8,240.2 101.8,268.4 	"/>
	<linearGradient id="XMLID_44_" gradientUnits="userSpaceOnUse" x1="101.3827" y1="254.2888" x2="221.3808" y2="254.2888">
		<stop  offset="0" style="stop-color:#00AEEF"/>
		<stop  offset="1" style="stop-color:#262262"/>
	</linearGradient>
	<polygon id="XMLID_5_" class="st13" points="54.7,251.5 54.7,245.4 82,245.4 87.3,240.2 47.9,240.2 47.9,268.4 54.7,268.4 
		54.7,256.5 70.8,256.5 75.8,251.5 	"/>
	<linearGradient id="XMLID_45_" gradientUnits="userSpaceOnUse" x1="356.5032" y1="254.2893" x2="151.1429" y2="254.2893">
		<stop  offset="0" style="stop-color:#EE2A7B"/>
		<stop  offset="1" style="stop-color:#662D91"/>
	</linearGradient>
	<rect id="XMLID_4_" x="283.4" y="251.7" class="st14" width="25.6" height="5.1"/>
	<linearGradient id="XMLID_46_" gradientUnits="userSpaceOnUse" x1="356.5032" y1="265.8072" x2="151.1429" y2="265.8072">
		<stop  offset="0" style="stop-color:#EE2A7B"/>
		<stop  offset="1" style="stop-color:#662D91"/>
	</linearGradient>
	<rect id="XMLID_3_" x="283.4" y="263.2" class="st15" width="25.6" height="5.1"/>
</g>
</svg>
